WWE MONDAY NIGHT RAW 02 01 2012 IN MKV FORMAT .       Download**Enjoy**Seed


SCREENSHOTS:
               
http://image.bayimg.com/balfnaadl.jpg
               
http://image.bayimg.com/balfoaadl.jpg
     


DETAILS ARE:


WWE MONDAY NIGHT RAW 02 01 2012 hdtv Bzingaz.flv

Format                           : Flash Video
File size                        : 577 MiB
Duration                         : 1h 31mn
Overall bit rate                 : 884 Kbps


Video
Format                           : AVC
Format/Info                      : Advanced Video Codec
Format profile                   : Main@L3.0
Format settings, CABAC           : Yes
Format settings, ReFrames        : 3 frames
Format settings, GOP             : M=1, N=50
Codec ID                         : 7
Duration                         : 1h 31mn
Bit rate                         : 747 Kbps
Width                            : 626 pixels
Height                           : 360 pixels
Display aspect ratio             : 16:9
Frame rate mode                  : Constant
Frame rate                       : 25.000 fps
Color space                      : YUV
Chroma subsampling               : 4:2:0
Bit depth                        : 8 bits
Scan type                        : Progressive
Bits/(Pixel*Frame)               : 0.133
Stream size                      : 488 MiB (85%)

Audio
Format                           : AAC
Format/Info                      : Advanced Audio Codec
Format profile                   : LC
Codec ID                         : 10
Duration                         : 1h 31mn
Bit rate                         : 129 Kbps
Channel(s)                       : 2 channels
Channel positions                : Front: L R
Sampling rate                    : 44.1 KHz
Compression mode                 : Lossy
Stream size                      : 84.0 MiB (15%)
